<?xml version="1.0" standalone="no"?>
<!DOCTYPE svg PUBLIC "-//W3C//DTD SVG 20010904//EN"
 "http://www.w3.org/TR/2001/REC-SVG-20010904/DTD/svg10.dtd">
<svg version="1.0" xmlns="http://www.w3.org/2000/svg"
 width="2134.000000pt" height="1342.000000pt" viewBox="0 0 2134.000000 1342.000000"
 preserveAspectRatio="xMidYMid meet">
<metadata>
Created by potrace 1.10, written by Peter Selinger 2001-2011
</metadata>
<g transform="translate(0.000000,1342.000000) scale(0.100000,-0.100000)"
fill="#000000" stroke="none">
<path d="M11045 12148 c-94 -33 -110 -52 -108 -128 2 -57 21 -199 28 -211 11
-17 14 -260 4 -287 -10 -27 -40 -194 -46 -257 -3 -22 -6 -62 -9 -90 -9 -109
-15 -151 -23 -170 -27 -57 -37 -150 -24 -210 7 -33 15 -136 18 -228 2 -93 9
-195 15 -226 6 -32 12 -90 15 -130 5 -79 53 -139 113 -141 22 0 115 103 120
135 9 55 -4 201 -20 222 -13 17 -29 106 -34 198 -2 44 -7 120 -10 168 -3 52
-1 110 6 140 6 29 18 113 26 187 21 208 32 279 54 351 15 52 19 95 19 215 1
222 1 243 10 267 4 11 4 36 0 55 -4 19 -5 40 -2 48 16 42 -97 111 -152 92z"/>
<path d="M12684 11195 c-10 -8 -28 -15 -39 -15 -11 0 -33 -7 -49 -15 -15 -8
-38 -15 -50 -15 -13 0 -26 -3 -29 -7 -4 -4 -27 -14 -51 -22 -24 -9 -67 -37
-96 -64 l-52 -47 8 -48 c4 -26 8 -58 9 -72 2 -68 131 -153 280 -185 107 -23
185 -72 185 -116 0 -10 5 -21 10 -24 18 -11 11 -44 -12 -56 -13 -7 -31 -23
-41 -36 -10 -12 -25 -23 -33 -23 -8 0 -26 -7 -40 -16 -18 -12 -36 -15 -71 -10
-84 11 -194 -48 -179 -96 3 -7 7 -24 10 -38 16 -74 136 -147 177 -108 25 25
103 64 161 82 32 10 73 28 91 40 18 13 44 26 58 29 126 33 169 226 69 319 -11
10 -20 26 -20 36 0 20 -112 142 -130 142 -6 0 -23 9 -37 20 -18 14 -41 20 -75
20 -45 0 -98 21 -98 40 0 22 139 34 203 18 73 -18 208 65 168 105 -6 6 -11 18
-11 27 -1 24 -115 108 -158 116 -20 4 -49 13 -64 20 -35 18 -69 18 -94 -1z"/>
<path d="M13824 11169 c-76 -47 -147 -302 -160 -579 -3 -60 -41 -110 -85 -110
-26 0 -79 39 -79 59 0 8 -12 25 -27 37 -37 29 -40 102 -7 203 13 40 24 84 24
96 0 13 8 50 19 83 21 67 19 71 -43 140 -34 37 -121 47 -146 17 -7 -8 -19 -15
-26 -15 -27 0 -44 -69 -48 -204 -3 -72 -9 -144 -14 -161 -19 -62 36 -305 69
-305 5 0 9 -6 9 -14 0 -14 27 -51 65 -88 68 -66 95 -76 183 -72 81 4 93 9 175
70 71 54 80 54 106 2 55 -113 123 -151 166 -94 15 20 33 36 41 36 37 0 35 107
-2 151 -8 8 -14 21 -14 27 0 6 -11 44 -24 84 -26 80 -26 177 0 199 8 6 14 22
14 34 0 13 7 36 15 51 21 41 19 87 -5 109 -15 14 -19 26 -15 47 26 115 -105
250 -191 197z"/>
<path d="M15345 11141 c-22 -11 -80 -32 -130 -47 -90 -29 -147 -66 -166 -108
-5 -12 -18 -34 -29 -51 -73 -113 -75 -118 -80 -360 -2 -86 12 -178 34 -215 19
-32 111 -130 122 -130 3 0 17 -8 31 -17 36 -24 143 -51 180 -46 16 3 62 -2
104 -11 78 -16 115 -14 282 19 43 8 80 15 83 15 2 0 18 13 36 29 18 16 42 30
53 32 11 2 24 14 30 26 6 11 17 28 25 37 12 15 11 18 -9 23 -12 3 -20 11 -18
17 22 61 -60 82 -248 65 -148 -14 -267 -7 -317 17 -39 18 -49 34 -23 34 9 0
18 7 21 15 4 8 12 15 18 15 7 0 41 20 76 45 35 25 69 45 74 45 64 3 140 155
133 264 -8 115 -12 133 -42 177 -72 110 -156 148 -240 110z m30 -262 c4 -5 0
-18 -9 -28 -9 -10 -16 -25 -16 -34 0 -9 -12 -24 -26 -34 -14 -10 -38 -28 -54
-40 -36 -29 -40 -29 -40 5 0 63 120 172 145 131z"/>
<path d="M10343 11109 c-114 -14 -175 -37 -233 -87 -82 -69 -270 -264 -270
-279 0 -7 -4 -21 -9 -31 -90 -164 -88 -343 4 -434 45 -43 60 -55 91 -71 17 -9
36 -23 43 -31 8 -9 24 -16 36 -16 12 0 28 -6 34 -13 24 -29 203 -67 314 -67
109 0 172 19 172 51 0 18 8 27 34 35 29 9 50 28 51 45 0 7 -104 19 -170 21
-85 2 -198 21 -237 38 -24 11 -49 20 -57 20 -8 0 -17 4 -21 9 -3 5 -19 12 -35
16 -150 33 -154 252 -9 387 16 15 29 31 29 35 0 59 258 189 328 165 70 -24
160 47 147 116 -8 44 -49 84 -90 88 -16 2 -43 5 -60 7 -16 3 -58 1 -92 -4z"/>
<path d="M14279 11069 c-48 -21 -69 -50 -69 -94 0 -13 -4 -27 -10 -30 -12 -7
-13 -67 -2 -80 5 -6 14 -30 21 -55 7 -25 18 -48 24 -52 7 -4 10 -70 9 -190 -1
-130 3 -199 13 -237 10 -39 11 -59 3 -76 -9 -19 -7 -31 11 -60 11 -20 21 -42
21 -49 0 -50 112 -82 150 -42 13 15 31 26 41 26 32 0 40 25 39 131 -1 57 1
115 4 129 2 14 7 97 11 184 7 162 13 195 40 222 19 19 141 55 161 47 17 -6 46
15 38 28 -2 5 3 20 11 33 78 119 -122 234 -272 157 l-43 -21 -40 25 c-48 31
-98 32 -161 4z"/>
<path d="M11751 11030 c-22 -5 -48 -24 -73 -53 -42 -50 -71 -65 -92 -48 -26
22 -91 1 -143 -44 l-48 -42 -3 -138 c-3 -133 -2 -147 29 -207 5 -10 9 -26 9
-37 0 -10 7 -24 15 -31 8 -7 15 -18 15 -24 0 -96 285 -208 359 -142 9 8 51 32
93 54 43 22 87 51 97 64 87 103 82 93 103 233 21 136 4 240 -42 252 -8 2 -21
16 -28 31 -11 25 -28 38 -102 81 -21 12 -151 63 -154 60 -1 -1 -16 -5 -35 -9z
m107 -244 c91 -48 99 -101 34 -243 -31 -70 -145 -104 -208 -61 -76 52 -112
214 -42 192 12 -3 22 4 32 23 21 40 104 102 139 103 10 0 30 -6 45 -14z"/>
<path d="M16275 9199 c-48 -9 -291 -23 -430 -25 -116 -1 -264 -10 -420 -24
-60 -6 -184 -12 -275 -15 -91 -2 -196 -6 -235 -9 -219 -14 -403 -17 -440 -8
-54 15 -129 16 -255 3 -58 -5 -204 -12 -325 -15 -483 -11 -583 -15 -665 -26
-211 -28 -643 -31 -807 -5 -110 17 -113 17 -180 -3 -73 -22 -137 -28 -423 -38
-290 -11 -477 -9 -492 3 -7 6 -44 13 -83 16 -38 2 -104 10 -145 16 -56 8 -126
8 -275 0 -110 -6 -240 -13 -290 -15 -49 -1 -117 -10 -150 -19 -33 -10 -117
-21 -186 -25 -69 -4 -135 -10 -146 -14 -28 -9 -105 9 -115 27 -4 8 -25 18 -45
22 -21 4 -49 9 -62 11 -90 17 -225 -172 -158 -221 9 -7 17 -17 17 -23 0 -6 9
-26 20 -44 11 -18 20 -47 20 -64 0 -16 9 -48 19 -70 10 -21 24 -59 31 -84 7
-25 15 -49 20 -55 12 -15 21 -83 21 -154 0 -36 4 -70 10 -77 6 -7 8 -21 5 -31
-3 -10 -5 -47 -6 -83 0 -36 0 -80 0 -98 0 -17 4 -40 9 -50 47 -88 13 -268 -46
-239 -26 14 -63 28 -80 32 -18 3 -35 11 -38 16 -4 5 -15 9 -27 9 -11 0 -32 6
-46 14 -34 18 -95 41 -151 58 -34 10 -52 23 -76 58 -73 105 -316 86 -326 -25
-2 -34 10 -105 21 -120 7 -9 13 -34 22 -90 3 -18 -2 -20 -42 -17 -25 2 -115 3
-200 2 -85 0 -180 0 -210 2 -51 3 -810 0 -965 -3 -38 -1 -203 1 -365 4 -282 5
-344 1 -392 -24 -73 -38 -383 -34 -447 5 -24 15 -128 -15 -140 -40 -19 -42
-25 -103 -11 -119 6 -8 10 -20 7 -27 -15 -44 96 -115 193 -122 30 -3 75 -9
100 -14 46 -11 142 -1 164 16 20 17 80 25 211 27 103 2 137 6 164 20 33 17
180 17 286 -1 56 -9 260 -6 287 5 19 7 53 7 108 0 54 -6 121 -6 212 1 205 17
272 21 288 19 14 -1 171 -2 370 0 47 0 118 -7 159 -15 41 -9 83 -13 94 -10
113 29 231 -23 222 -99 -4 -33 -7 -85 -7 -115 1 -30 1 -87 1 -127 -1 -119 60
-210 124 -184 17 7 43 15 57 18 14 3 29 12 33 19 4 8 15 14 23 14 21 0 73 50
68 65 -5 12 132 155 148 155 4 0 26 18 50 40 24 22 49 40 56 40 7 0 28 11 46
25 55 42 72 28 82 -72 8 -83 8 -83 -1 -143 -4 -30 -9 -84 -9 -120 -1 -54 -6
-72 -29 -104 -15 -21 -27 -44 -28 -50 -8 -100 -5 -150 13 -165 10 -8 18 -24
18 -34 0 -9 8 -20 18 -24 9 -3 36 -22 60 -41 37 -29 48 -33 78 -27 21 4 41 2
49 -5 17 -14 85 -2 92 16 6 16 58 44 82 44 9 0 25 7 35 15 11 8 29 12 42 9 12
-3 33 1 46 9 19 12 106 27 168 29 8 1 20 4 25 9 37 29 943 5 932 -25 -2 -6 0
-38 4 -71 25 -167 31 -217 34 -296 3 -48 0 -138 -5 -200 -6 -63 -10 -203 -10
-311 1 -225 3 -220 -85 -211 -27 2 -61 5 -75 7 -14 1 -47 6 -73 10 -98 17
-179 -50 -212 -174 -12 -45 -11 -50 6 -66 10 -9 19 -22 19 -28 0 -6 10 -21 23
-33 94 -92 147 -160 161 -208 8 -26 26 -64 40 -84 15 -22 32 -67 40 -107 16
-83 32 -125 52 -140 11 -9 16 -36 18 -101 2 -54 9 -100 18 -118 9 -17 19 -44
22 -62 16 -72 79 -136 152 -153 l54 -13 39 38 c22 22 38 42 35 47 -3 4 2 20 9
35 8 16 14 54 14 88 -1 62 28 201 44 211 5 3 9 12 9 21 0 9 13 37 28 62 16 25
34 63 41 83 7 20 18 39 26 42 8 3 15 14 15 25 0 11 6 24 13 28 21 13 57 70 57
90 0 10 8 30 17 43 10 14 16 33 15 43 -2 9 3 20 11 23 8 3 18 25 22 50 5 33
13 49 33 62 15 9 34 24 43 33 9 9 21 18 27 20 10 4 16 82 11 134 -1 11 1 28 5
37 11 24 -37 71 -63 63 -20 -6 -65 10 -92 32 -13 11 -27 11 -62 3 -25 -5 -53
-7 -62 -4 -8 4 -22 1 -29 -5 -36 -30 -135 -1 -136 39 -3 89 1 314 6 385 4 50
7 210 7 358 l0 267 41 2 c23 0 48 0 56 -1 118 -16 158 -17 330 -7 74 4 182 10
240 12 58 2 137 5 175 8 39 2 75 0 80 -4 17 -12 248 -24 455 -22 379 4 444 1
478 -17 9 -5 49 -7 87 -5 87 4 362 -14 384 -25 41 -22 250 -36 280 -18 28 17
49 18 264 19 111 1 109 3 111 -135 1 -64 5 -119 9 -123 4 -4 2 -13 -4 -20 -8
-9 -7 -23 2 -48 9 -26 10 -41 2 -59 -7 -14 -7 -30 -2 -39 7 -12 6 -501 -1
-553 0 -5 1 -32 4 -60 10 -102 8 -171 -4 -197 -10 -22 -10 -33 0 -57 6 -16 9
-34 6 -40 -3 -5 -2 -21 4 -35 5 -14 10 -90 11 -168 0 -79 6 -177 12 -218 6
-41 11 -100 12 -130 5 -113 26 -428 36 -527 12 -110 7 -176 -21 -298 -10 -44
-21 -128 -24 -188 -3 -59 -10 -115 -15 -125 -31 -59 -26 -685 7 -924 17 -117
9 -368 -11 -379 -11 -7 -17 -22 -17 -44 0 -19 -5 -35 -11 -35 -7 0 -9 -10 -6
-25 3 -18 -1 -29 -14 -36 -10 -5 -16 -16 -13 -24 4 -8 1 -15 -5 -15 -6 0 -11
-5 -11 -11 0 -11 -44 -74 -72 -102 -10 -10 -18 -22 -18 -26 0 -5 -8 -11 -17
-15 -19 -6 -30 -12 -98 -56 -63 -41 -95 -52 -160 -56 -33 -3 -76 -12 -95 -21
-19 -9 -46 -16 -59 -15 -13 1 -29 -2 -35 -7 -14 -12 -157 -41 -168 -35 -5 3
-24 -8 -42 -24 -19 -17 -52 -36 -73 -42 -21 -7 -54 -23 -73 -35 -46 -29 -120
-61 -160 -70 -17 -4 -43 -13 -57 -20 -15 -8 -30 -12 -35 -9 -10 6 -130 -15
-143 -26 -5 -5 -38 -11 -73 -14 -34 -3 -70 -9 -80 -14 -9 -5 -39 -10 -67 -11
-27 -1 -54 -7 -59 -12 -6 -5 -22 -9 -36 -9 -14 0 -30 -4 -35 -9 -11 -11 -146
-44 -152 -37 -3 2 -21 -2 -40 -11 -20 -8 -50 -13 -67 -12 -17 2 -36 0 -42 -4
-7 -4 -45 -12 -85 -18 -41 -6 -83 -15 -94 -20 -22 -10 -258 -4 -420 9 -55 5
-140 7 -190 6 -49 -2 -173 -5 -275 -8 -204 -4 -264 -9 -349 -30 -31 -7 -76
-14 -101 -14 -98 -1 -217 -15 -249 -28 -19 -8 -42 -12 -51 -9 -9 3 -33 -1 -52
-9 -19 -8 -61 -15 -94 -16 -32 -1 -72 -2 -89 -2 -16 0 -70 0 -120 2 -49 1
-157 -3 -240 -10 -82 -6 -231 -13 -330 -14 -99 -1 -187 -6 -195 -11 -8 -6 -35
-11 -60 -11 -56 -2 -111 -13 -127 -26 -8 -6 -40 -7 -85 -2 -40 5 -80 7 -88 6
-8 -1 -62 -5 -120 -7 -58 -3 -143 -7 -190 -9 -72 -4 -285 -7 -342 -5 -10 0
-20 5 -23 10 -4 5 -17 6 -30 3 -13 -3 -49 0 -80 6 -32 7 -126 14 -209 16 -83
1 -184 8 -223 14 -208 30 -229 31 -478 30 -195 -1 -607 11 -660 19 -81 13
-181 22 -295 27 -52 2 -120 7 -150 10 -30 4 -77 7 -105 6 -27 -1 -93 3 -145 8
-62 7 -107 7 -128 1 -25 -8 -50 -6 -94 5 -33 9 -66 13 -73 10 -7 -2 -34 2 -61
10 -26 8 -67 14 -91 14 -24 0 -54 5 -66 12 -12 6 -51 13 -87 14 -36 1 -90 10
-120 19 -66 20 -170 37 -225 36 -22 -1 -53 5 -70 13 -17 8 -53 15 -80 16 -90
3 -249 22 -310 37 -33 8 -76 17 -95 20 -19 3 -43 12 -52 21 -14 11 -32 13 -75
9 -38 -4 -72 -1 -98 8 -22 8 -88 22 -148 31 -59 9 -114 22 -121 29 -6 7 -28
20 -46 30 -19 9 -45 30 -58 46 -13 16 -29 29 -35 29 -7 0 -23 9 -37 20 -14 11
-31 20 -39 20 -15 0 -91 77 -91 93 0 14 -42 70 -67 90 -13 10 -23 26 -23 35 0
9 -19 35 -43 57 -38 35 -44 47 -50 95 -4 32 -15 65 -27 80 -36 44 -40 61 -64
215 -7 45 -19 91 -27 100 -4 6 -8 20 -8 30 1 11 -2 65 -6 120 -4 55 -8 129
-10 165 -2 36 -7 91 -10 124 -5 39 -3 66 5 81 8 15 10 37 5 62 -4 21 -9 112
-12 203 -2 91 -8 167 -13 170 -15 10 -22 135 -26 500 -3 201 -6 392 -6 425 -1
33 1 107 3 165 3 58 -1 159 -8 225 -6 66 -11 127 -10 135 3 25 -14 324 -19
343 -4 11 0 17 10 17 9 0 16 -4 16 -9 0 -17 38 -22 59 -9 16 10 23 10 33 0 6
-6 36 -12 64 -12 29 0 55 -4 58 -9 3 -5 22 -5 43 0 21 5 54 11 74 14 122 18
177 180 78 230 -17 9 -29 24 -29 35 0 10 -8 21 -18 24 -29 10 -57 47 -71 94
-12 41 -20 47 -64 44 -10 -1 -20 6 -24 16 -3 9 -19 31 -35 48 -16 17 -30 44
-32 61 -3 17 -15 62 -29 99 -29 81 -29 297 0 349 8 13 8 24 -1 37 -9 16 -7 22
13 37 29 22 21 138 -14 181 -6 8 -18 31 -25 50 -16 42 -38 70 -56 70 -7 0 -27
14 -44 30 -17 16 -39 30 -50 30 -26 0 -80 32 -80 48 0 10 -13 11 -51 6 -29 -4
-68 -7 -87 -8 -44 -1 -90 -66 -91 -128 -1 -20 -6 -40 -12 -44 -8 -4 -9 -29 -5
-75 5 -45 4 -69 -3 -69 -15 0 -7 -88 13 -134 22 -54 25 -209 4 -233 -14 -18
-31 -68 -43 -128 -29 -149 -43 -180 -76 -170 -11 4 -19 2 -19 -4 0 -5 -15 -13
-33 -16 -41 -9 -57 -22 -57 -47 0 -11 -8 -22 -17 -25 -10 -2 -28 -25 -40 -51
-31 -63 -70 -115 -94 -124 -10 -4 -19 -15 -19 -24 0 -10 -16 -32 -35 -50 -23
-21 -35 -41 -35 -58 0 -15 -7 -43 -16 -64 -18 -43 -12 -94 16 -130 10 -13 28
-43 40 -68 12 -24 29 -44 38 -45 33 -2 67 3 78 12 7 5 16 9 20 8 45 -8 73 3
98 40 30 43 64 62 95 54 12 -3 27 2 36 11 9 9 26 16 39 16 12 0 31 7 42 15 36
27 54 19 55 -25 1 -22 3 -52 5 -67 10 -85 14 -211 20 -613 7 -499 6 -453 4
-656 -1 -95 3 -168 11 -195 18 -66 27 -866 10 -897 -4 -8 -4 -33 1 -56 4 -22
12 -66 17 -96 5 -30 23 -100 40 -155 17 -55 36 -142 42 -194 6 -52 18 -111 28
-130 10 -20 24 -56 31 -81 7 -25 17 -49 22 -54 4 -6 8 -20 8 -32 0 -12 6 -27
14 -33 7 -6 16 -28 20 -49 3 -22 16 -48 31 -62 14 -13 25 -28 25 -34 0 -6 12
-22 27 -36 14 -14 33 -41 40 -60 17 -40 61 -90 79 -90 7 0 21 -16 30 -35 9
-20 28 -42 43 -49 14 -8 43 -30 64 -50 25 -24 48 -36 67 -36 15 0 41 -7 56
-15 16 -8 38 -15 49 -15 11 0 29 -7 39 -15 11 -8 37 -15 59 -15 21 0 46 -4 55
-9 10 -5 46 -12 81 -15 69 -6 194 -34 306 -68 39 -12 80 -22 92 -24 12 -1 48
-9 81 -18 32 -8 108 -15 168 -16 243 -4 299 -6 309 -12 6 -3 44 -9 85 -12 41
-4 91 -13 110 -20 73 -27 102 -35 116 -29 8 3 35 0 60 -6 25 -6 86 -14 136
-16 50 -3 126 -12 167 -21 42 -9 94 -18 116 -19 78 -6 311 -18 405 -20 52 -1
113 -7 136 -13 37 -11 176 -25 229 -24 11 0 63 -5 115 -10 196 -22 370 -29
760 -30 193 0 294 -4 340 -14 36 -8 74 -14 85 -13 11 0 67 -5 125 -11 58 -6
112 -11 120 -11 74 3 170 -2 325 -14 124 -10 386 -13 447 -5 37 6 159 14 272
20 113 6 240 17 283 26 55 11 153 16 333 19 140 2 304 8 363 14 78 9 124 9
168 1 32 -6 63 -9 67 -6 4 2 36 7 72 10 70 7 153 20 265 43 81 17 164 28 325
43 63 7 119 14 125 18 5 3 60 7 120 9 61 1 195 4 299 7 164 4 195 2 240 -14
95 -34 124 -46 138 -57 21 -18 130 0 167 27 17 13 36 20 46 17 8 -4 35 0 58 8
23 8 71 17 106 19 35 3 74 12 86 20 13 8 31 15 41 14 21 -1 184 26 252 42 24
6 80 13 125 16 45 3 123 12 172 20 50 8 113 19 140 23 28 4 64 15 80 24 17 9
37 17 45 17 19 0 167 55 183 68 9 7 67 30 97 37 9 3 44 16 75 29 18 7 45 10
68 6 29 -5 53 -1 99 17 42 17 74 24 108 21 29 -2 53 2 63 10 20 17 80 34 127
36 46 2 68 13 107 53 21 20 54 39 88 48 30 9 57 21 61 26 3 6 12 8 20 5 8 -3
14 -1 14 5 0 14 41 48 58 49 19 0 102 85 102 103 0 9 4 18 9 22 19 11 131 166
131 181 0 8 5 14 11 14 34 0 52 157 25 222 -11 26 -14 61 -10 141 4 74 2 113
-7 129 -7 13 -14 70 -16 132 -1 59 -7 125 -13 145 -48 178 -41 554 16 811 9
41 17 89 16 105 0 17 6 86 15 155 9 69 15 157 14 195 -4 191 -20 409 -35 484
-10 46 -15 95 -11 109 9 37 12 185 4 202 -29 60 -32 225 -7 309 18 59 18 336
-1 421 -15 72 -20 242 -14 470 2 47 1 111 -2 142 -4 39 -1 68 9 93 17 39 12
178 -6 202 -15 18 2 63 26 68 21 5 31 5 123 6 29 0 55 4 58 9 4 6 23 10 44 10
21 0 63 5 92 11 30 5 77 12 104 14 80 6 201 14 325 21 177 11 174 10 365 29
197 19 486 16 540 -5 34 -13 388 -7 440 8 19 6 76 4 150 -4 119 -14 312 -18
390 -9 108 13 253 34 277 40 14 4 68 1 120 -6 127 -18 284 -15 478 7 99 11
600 17 750 8 104 -6 431 -5 442 2 19 12 153 10 218 -4 36 -7 72 -13 80 -14 8
0 47 -6 87 -14 98 -19 97 -19 147 29 51 49 66 95 42 132 -9 13 -16 34 -16 45
0 12 -9 24 -24 30 -13 5 -27 14 -31 20 -10 16 -74 40 -110 40 -18 0 -45 10
-61 23 -38 30 -214 38 -264 12 -22 -11 -57 -16 -123 -15 -51 0 -130 -4 -177
-10 -115 -14 -110 -14 -240 -4 -63 4 -131 8 -150 7 -19 -1 -152 -4 -295 -7
-225 -4 -456 -19 -475 -31 -4 -2 -80 1 -170 7 -119 7 -173 7 -199 -1 -49 -15
-168 -24 -476 -36 -197 -8 -209 -8 -254 8 -39 14 -59 14 -171 2 -69 -7 -139
-11 -153 -8 -15 3 -33 1 -40 -5 -8 -7 -46 -8 -117 -2 -285 25 -516 33 -600 22
-88 -11 -100 -5 -98 46 1 21 1 78 0 127 -1 50 3 115 9 145 11 54 1 114 -24
148 -6 7 -7 36 -2 70 9 68 10 115 2 202 -4 44 -1 85 9 129 9 35 14 80 11 100
-3 20 -2 81 3 136 6 69 5 104 -2 113 -6 7 -12 64 -12 131 -1 84 -6 124 -16
135 -8 11 -12 38 -11 76 1 33 -6 90 -15 127 -44 177 -7 388 71 395 163 17
1852 10 2210 -8 109 -5 347 -6 980 -1 325 2 902 -13 965 -25 247 -50 374 86
230 243 l-31 34 -97 -1 c-53 0 -122 -6 -152 -12 -38 -8 -199 -10 -517 -8 -378
3 -465 1 -480 -10 -21 -15 -60 -18 -65 -5 -4 11 -117 14 -278 8 -133 -6 -295
7 -383 30 -44 11 -82 14 -132 9 -38 -4 -117 -9 -175 -11 -58 -2 -163 -7 -235
-10 -136 -7 -388 -7 -465 -1 -197 15 -1099 26 -1165 15z m-606 -275 c5 -4 4
-114 -1 -227 -3 -43 -1 -80 3 -83 4 -2 5 -19 3 -37 -3 -17 2 -59 12 -92 9 -33
20 -94 24 -135 3 -41 14 -90 24 -108 14 -28 16 -49 11 -125 -16 -234 -20 -344
-14 -374 8 -39 0 -182 -12 -204 -25 -48 -33 -306 -9 -334 13 -16 11 -105 -3
-123 -7 -9 -6 -20 3 -37 7 -13 10 -36 7 -52 -2 -15 -1 -53 3 -83 9 -70 6 -76
-33 -77 -18 0 -79 -4 -137 -7 -58 -4 -134 -6 -170 -6 -36 1 -111 -6 -167 -15
-57 -8 -130 -15 -163 -15 l-61 0 1 48 c0 26 -6 88 -13 137 -8 50 -10 92 -6 93
5 2 9 16 9 32 0 16 5 41 10 56 14 35 24 107 23 166 0 26 4 46 10 45 16 -3 96
123 103 162 3 20 9 47 13 60 32 109 -98 274 -244 308 -29 6 -49 6 -70 -3 -17
-7 -40 -13 -52 -14 -18 0 -74 -26 -144 -66 -55 -32 -79 -72 -65 -113 6 -18 4
-28 -7 -36 -30 -22 -34 -137 -7 -177 33 -48 118 -128 136 -128 13 0 14 -13 9
-82 -4 -46 -8 -170 -9 -276 -2 -106 -5 -194 -7 -197 -22 -21 -388 -1 -481 27
-38 11 -42 10 -55 -9 -22 -33 -528 -15 -768 28 -33 6 -81 8 -107 4 -50 -6 -63
6 -36 33 9 9 7 19 -10 42 -12 16 -22 39 -22 52 0 13 -9 58 -20 102 -22 88 -24
124 -10 176 5 19 11 80 14 135 2 55 7 125 10 155 9 101 7 234 -4 305 -6 39
-13 113 -15 165 -2 52 -6 102 -9 110 -4 8 -8 65 -10 125 -3 61 -7 173 -11 250
-14 302 -13 325 12 325 12 0 33 4 46 9 13 5 91 11 173 12 82 1 183 6 224 11
41 4 134 8 205 7 231 -2 358 -2 480 0 66 0 149 -2 185 -7 36 -4 88 -3 115 1
64 12 102 14 320 21 258 8 461 22 548 37 31 5 61 8 65 6 4 -3 25 -1 47 3 36 7
93 4 104 -6z m-2961 -100 c56 -4 102 -9 103 -13 1 -3 2 -21 4 -39 1 -17 14
-56 28 -85 15 -29 29 -78 32 -112 3 -33 11 -89 17 -125 6 -36 12 -117 13 -180
2 -63 7 -225 11 -360 11 -299 9 -432 -6 -460 -10 -19 -15 -257 -6 -355 2 -22
-3 -64 -10 -94 -8 -29 -11 -69 -8 -87 12 -79 -30 -97 -150 -64 -84 24 -117 25
-216 6 -41 -8 -78 -12 -83 -9 -12 8 -261 4 -377 -6 -67 -6 -149 -5 -227 2
l-123 10 0 46 c-1 69 -19 350 -26 398 -6 41 -5 43 51 95 117 109 136 260 44
344 -10 9 -19 23 -19 29 0 68 -221 107 -318 56 -9 -5 -39 -17 -67 -27 -88 -31
-119 -64 -177 -190 -11 -23 41 -107 81 -132 12 -7 21 -21 21 -31 0 -10 7 -21
15 -25 8 -3 15 -11 15 -18 0 -7 14 -22 30 -33 41 -27 61 -68 67 -140 3 -33 9
-67 14 -77 18 -33 21 -151 6 -208 l-14 -55 -44 4 c-24 3 -55 4 -69 4 -14 -1
-194 -4 -400 -7 -376 -5 -482 -10 -575 -26 -155 -27 -153 -28 -192 124 -8 33
-22 70 -29 81 -9 13 -14 48 -14 102 0 49 -4 83 -10 83 -13 0 -13 57 0 62 19 6
13 666 -5 684 -12 12 -15 42 -15 137 0 67 -5 149 -10 182 -15 85 -40 294 -40
332 0 46 22 63 84 63 72 0 156 17 213 42 42 19 70 22 217 25 99 1 174 7 181
13 7 6 28 10 46 10 58 -2 243 12 258 20 8 4 38 -1 68 -12 35 -12 77 -18 117
-17 35 1 67 -1 72 -3 5 -3 115 1 244 8 221 13 291 15 500 11 82 -1 213 6 425
22 55 5 111 7 125 5 14 -2 71 -6 128 -10z m-1226 -3624 c-5 -62 -42 -67 -42
-6 0 37 7 48 30 43 11 -2 14 -13 12 -37z"/>
<path d="M2018 8662 c-52 -53 -64 -79 -44 -101 9 -10 16 -21 16 -24 0 -20 77
-87 100 -87 14 0 36 -7 49 -16 26 -19 71 -6 71 20 0 7 11 21 25 30 18 12 24
23 21 44 -19 156 -144 227 -238 134z"/>
<path d="M1200 8438 c-47 -15 -75 -151 -40 -193 61 -74 61 -117 -2 -153 -126
-71 -190 -309 -117 -432 5 -8 13 -24 18 -36 6 -14 26 -25 58 -33 92 -24 94
-25 87 -73 -7 -47 -26 -68 -60 -68 -91 0 -212 -80 -206 -135 7 -69 14 -90 33
-111 12 -13 32 -24 43 -24 12 0 42 -8 68 -17 45 -16 48 -16 66 0 21 19 94 15
110 -7 12 -14 26 -67 23 -84 -1 -8 5 -25 14 -39 9 -14 14 -35 11 -47 -23 -92
51 -245 127 -261 68 -14 107 -17 107 -8 0 5 14 24 31 42 35 38 33 60 -21 236
-34 111 -29 185 14 185 76 0 172 62 198 128 50 122 58 195 29 254 -11 25 -21
50 -21 56 0 20 -68 89 -100 102 -17 7 -30 16 -30 20 0 4 -12 10 -27 13 -122
23 -143 39 -141 103 1 58 16 69 72 55 153 -38 217 66 109 174 -25 25 -44 35
-67 35 -18 0 -37 5 -43 11 -6 6 -34 11 -62 11 l-51 0 1 70 c1 40 -3 74 -10 81
-6 6 -11 17 -11 25 0 16 -43 64 -84 94 -35 26 -93 37 -126 26z m325 -966 c10
-40 -45 -73 -59 -36 -7 19 -8 59 -1 66 14 14 54 -6 60 -30z"/>
<path d="M3605 8181 c-6 -5 -21 -11 -34 -13 -13 -1 -29 -12 -35 -23 -6 -11
-24 -35 -39 -53 -15 -19 -30 -47 -34 -63 -5 -28 -26 -39 -38 -19 -19 31 -154
-2 -178 -44 -20 -36 -36 -100 -28 -111 12 -14 35 -211 26 -225 -4 -6 -9 -80
-11 -164 l-5 -154 39 -38 c21 -22 51 -47 67 -56 17 -10 40 -25 53 -34 32 -24
112 57 112 115 0 34 34 146 64 215 22 48 57 183 71 269 7 46 22 48 29 5 11
-71 13 -227 3 -237 -29 -29 -10 -253 23 -271 10 -5 20 -23 24 -40 7 -38 42
-69 77 -70 15 0 32 -7 39 -15 18 -21 33 -19 58 10 12 14 26 25 31 25 18 0 22
39 11 97 -6 32 -15 159 -20 282 -6 123 -14 238 -20 255 -5 17 -16 61 -25 99
-25 111 -80 188 -163 228 -23 12 -45 25 -48 30 -7 12 -37 12 -49 0z"/>
<path d="M2510 8091 c-69 -36 -120 -306 -70 -366 6 -7 6 -25 0 -46 -13 -52 -8
-315 8 -331 6 -6 12 -20 12 -29 0 -59 184 -109 213 -59 10 17 25 30 33 30 26
0 32 42 18 134 -20 136 -4 196 73 271 41 40 51 36 57 -21 3 -21 10 -66 16 -99
7 -33 10 -77 7 -98 -12 -86 54 -226 105 -227 15 0 31 -7 36 -16 11 -20 48 -11
62 17 6 10 20 19 31 19 20 0 20 4 14 83 -7 81 -11 133 -20 252 -12 164 -15
188 -23 199 -5 6 -12 34 -16 61 -7 55 -36 125 -50 125 -6 0 -20 9 -32 21 -30
28 -55 27 -139 -6 -106 -40 -107 -40 -132 -2 -13 18 -23 39 -23 45 0 39 -130
70 -180 43z"/>
<path d="M4208 8076 c-165 -80 -247 -206 -252 -384 -1 -35 2 -66 6 -68 4 -3 5
-31 1 -62 -8 -74 -6 -133 6 -145 5 -5 7 -15 4 -22 -6 -17 174 -200 207 -210
14 -4 38 -17 53 -27 90 -64 203 -97 334 -98 83 0 231 125 218 185 -2 11 -7 37
-10 57 -10 66 -94 94 -160 53 -111 -67 -286 -19 -352 98 -18 32 -16 37 15 37
24 0 262 55 267 62 1 2 12 18 24 36 12 17 21 42 20 55 -1 12 1 30 5 39 12 26
-28 216 -58 279 -68 143 -186 185 -328 115z m136 -264 c9 -11 17 -36 19 -58
l2 -39 -60 1 c-33 1 -59 4 -57 8 1 3 2 12 2 19 0 44 70 95 94 69z"/>
<path d="M4907 8100 c-98 -30 -102 -47 -77 -300 7 -63 14 -171 16 -240 2 -69
7 -147 10 -175 3 -27 5 -65 5 -83 -2 -61 71 -192 105 -192 9 0 23 -9 32 -20
23 -28 87 -38 110 -17 9 8 26 17 37 19 18 3 20 12 23 82 2 44 7 87 12 95 4 9
11 48 14 86 13 140 18 175 27 180 5 4 9 17 9 29 0 13 7 29 15 36 9 8 15 30 15
56 0 28 5 45 13 45 6 1 73 3 147 3 187 3 282 86 195 172 -8 9 -15 24 -15 34 0
32 -46 50 -148 60 -53 5 -131 16 -172 24 -41 7 -84 10 -95 6 -70 -25 -103 -21
-111 13 -15 73 -88 110 -167 87z"/>
<path d="M2112 8079 c-48 -19 -74 -65 -78 -140 -2 -41 -6 -92 -9 -114 -3 -22
-7 -92 -10 -155 -2 -63 -7 -133 -11 -155 -12 -72 -7 -148 14 -198 7 -16 12
-33 12 -38 0 -10 2 -11 50 -15 19 -1 51 -8 72 -15 92 -30 157 68 114 172 -20
51 -1 284 27 317 7 9 12 59 14 126 l3 113 -43 50 c-43 52 -103 72 -155 52z"/>
<path d="M12013 4167 c-98 -51 -118 -139 -70 -311 51 -185 57 -427 11 -409 -8
3 -22 -1 -32 -10 -9 -8 -26 -18 -37 -21 -73 -24 -189 -175 -230 -301 -19 -60
-37 -110 -39 -112 -7 -8 -86 117 -86 137 0 37 -111 150 -149 150 -4 0 -12 5
-19 12 -93 93 -412 52 -473 -60 -9 -19 -24 -41 -32 -50 -26 -29 -31 -137 -11
-235 18 -96 13 -118 -24 -98 -16 8 -25 6 -45 -9 -14 -11 -28 -20 -32 -20 -4 0
-21 -6 -38 -13 -49 -21 -138 -46 -172 -49 -16 -1 -35 -6 -42 -11 -36 -26 -220
49 -239 97 -3 8 -14 16 -25 19 -36 10 -77 135 -49 152 6 3 19 25 29 48 24 51
100 117 135 117 37 0 110 74 97 98 -6 9 -13 34 -16 55 -5 29 -12 40 -32 48
-14 5 -38 18 -53 29 -59 42 -112 27 -252 -71 -15 -11 -32 -19 -38 -19 -6 0
-18 -15 -26 -32 -25 -56 -64 -122 -84 -143 -11 -12 -25 -35 -31 -53 -6 -18
-15 -32 -20 -32 -15 0 -11 -182 4 -210 8 -14 27 -50 42 -80 36 -69 108 -140
142 -140 27 0 83 -28 96 -48 18 -27 63 -62 81 -62 11 0 27 -6 35 -14 22 -20
167 -39 191 -26 10 6 41 10 69 10 27 0 53 5 56 10 3 6 17 10 31 10 13 0 34 5
47 12 49 25 58 28 86 28 17 0 33 5 36 11 4 6 19 7 36 4 54 -12 119 55 119 122
0 35 14 50 33 35 88 -73 416 -20 490 79 12 17 39 40 59 52 30 16 38 27 38 48
0 16 10 37 22 49 l22 20 16 -62 c44 -168 147 -258 294 -258 31 0 144 68 151
91 4 11 12 19 20 19 7 0 15 6 18 13 3 7 30 -15 66 -54 84 -92 188 -120 224
-60 19 32 48 32 70 0 21 -29 143 -57 251 -58 56 0 116 -6 147 -15 87 -26 167
-22 175 9 3 14 15 30 25 36 11 5 19 20 19 33 0 15 7 26 20 29 28 7 25 23 -10
44 -17 9 -33 25 -36 35 -3 10 -17 20 -32 23 -54 11 -107 27 -122 36 -8 5 -19
11 -25 13 -22 8 -162 27 -200 26 -33 0 -46 6 -74 34 -34 35 -34 56 -2 56 9 0
27 9 40 21 17 16 25 18 36 9 17 -14 55 -4 55 16 0 8 7 14 16 14 23 0 151 109
164 139 13 32 -9 114 -39 145 -11 12 -39 43 -63 70 -77 87 -116 91 -278 28
-78 -31 -175 -126 -195 -192 -4 -14 -14 -33 -22 -42 -8 -9 -13 -21 -10 -25 3
-5 2 -15 -3 -22 -21 -36 -44 100 -25 158 3 10 -2 72 -11 137 -9 66 -16 130
-17 144 0 39 11 153 18 176 4 12 0 34 -8 50 -13 25 -13 31 0 51 11 16 12 27 6
36 -6 6 -13 37 -17 68 -11 102 -45 160 -134 227 -38 28 -44 27 -119 -11z m-28
-1017 c3 -6 -3 -22 -14 -36 -12 -15 -21 -30 -21 -35 0 -5 -9 -23 -20 -41 -30
-49 -25 2 7 70 25 52 36 61 48 42z m-747 -60 c24 0 82 -49 82 -69 0 -21 -41
-51 -69 -51 -17 0 -33 -4 -36 -10 -11 -17 -122 -12 -129 6 -11 27 -7 116 4
109 6 -4 16 -2 23 3 15 13 56 21 82 16 11 -2 30 -4 43 -4z"/>
<path d="M13561 3992 c-6 -2 -11 -10 -11 -18 0 -7 -12 -21 -26 -31 -30 -19
-31 -137 -1 -172 7 -9 21 -41 29 -71 16 -52 22 -82 53 -245 19 -99 34 -163 50
-215 19 -61 34 -158 41 -271 3 -52 7 -100 10 -108 7 -20 -17 -170 -27 -177 -5
-3 -9 -16 -9 -29 0 -13 -13 -39 -28 -57 -16 -18 -45 -58 -65 -88 -36 -54 -47
-67 -118 -132 -43 -39 -57 -68 -29 -61 12 3 22 -3 29 -16 10 -19 9 -21 -11
-18 -19 2 -24 -3 -26 -30 -4 -39 -3 -39 43 -12 l35 21 11 -31 c16 -46 51 -42
107 14 24 25 53 45 63 45 25 0 59 30 59 52 0 9 9 22 20 28 11 6 20 7 20 3 0
-3 14 6 30 22 17 16 30 35 30 44 0 8 9 24 20 36 41 44 70 114 70 171 0 29 5
54 10 54 6 0 10 57 10 150 0 83 -4 150 -8 150 -5 0 -14 35 -20 78 -6 42 -19
111 -28 152 -44 205 -59 289 -95 548 -6 45 -15 84 -19 87 -5 3 -23 30 -40 60
-28 50 -35 55 -65 55 -19 0 -37 5 -40 10 -6 10 -48 11 -74 2z"/>
<path d="M9635 3806 c-11 -7 -32 -16 -47 -20 -20 -4 -28 -13 -28 -28 0 -12 -8
-31 -19 -42 -28 -32 -71 -149 -71 -195 0 -23 -4 -41 -9 -41 -5 0 -14 -21 -19
-47 -6 -27 -16 -75 -23 -108 -7 -33 -18 -67 -26 -76 -7 -8 -13 -20 -13 -26 0
-6 -9 -32 -20 -57 -14 -33 -22 -85 -28 -179 -10 -152 -4 -219 37 -382 5 -22
15 -60 21 -85 6 -25 11 -52 12 -60 0 -8 11 -48 24 -89 13 -40 24 -84 24 -97 0
-13 4 -24 8 -24 4 0 16 -48 26 -107 12 -70 28 -127 47 -165 16 -32 29 -65 29
-74 0 -72 274 -324 353 -324 11 0 30 -9 42 -20 45 -42 268 -41 243 1 -10 17
-10 23 0 26 6 3 12 18 12 34 0 26 9 34 33 30 4 0 7 5 7 13 0 22 -28 39 -54 34
-18 -4 -26 0 -29 13 -5 19 -44 39 -117 60 -88 25 -198 102 -235 164 -48 81
-59 103 -67 135 -5 19 -14 51 -19 70 -5 19 -19 76 -29 125 -11 50 -24 106 -29
125 -14 50 -67 254 -85 327 -27 108 -19 257 20 348 16 39 55 158 87 265 14 47
37 123 51 170 39 128 40 143 21 204 -26 82 -88 131 -130 102z"/>
</g>
</svg>
